<svg width="276" height="40" viewBox="0 0 276 40" fill="none" xmlns="http://www.w3.org/2000/svg">
<path d="M0 40H276V0H0V40Z" fill="black"/>
<path d="M5.82684 17.0879V33.3838H28.154C28.154 33.3838 43.7831 32.7761 44.2296 22.102C44.3155 20.0436 44.2296 15.8345 44.2296 15.8345C44.2296 15.8345 42.4433 6.64176 29.94 6.64176H12.0783L6.71986 13.3273H27.7075C27.7075 13.3273 34.8523 13.7452 34.8523 19.5951C34.8523 25.027 31.2799 26.6982 27.7075 26.6982H15.6507V17.0879H5.82684Z" fill="white"/>
<path d="M48.695 17.088C48.695 17.088 49.1415 5.80615 64.7706 5.80615H76.3806C76.3806 5.80615 91.5632 7.05989 91.5632 17.088V23.3557C91.5632 23.3557 89.7768 32.5482 77.7204 33.8016C61.6448 34.2194 62.0913 33.8016 62.0913 33.8016C62.0913 33.8016 49.1415 31.7126 48.695 23.7735C48.3422 17.5006 48.695 17.088 48.695 17.088Z" fill="white"/>
<path d="M57.6259 18.7594C57.6259 18.7594 57.6259 13.7454 64.3242 13.3275C71.0221 12.9097 75.4876 13.3275 75.4876 13.3275C75.4876 13.3275 82.6324 13.3275 82.6324 17.9238V23.3556C82.6324 23.3556 80.3995 27.1162 76.3806 27.1162H64.3242C64.3242 27.1162 57.6259 26.6984 57.6259 22.52V18.7594Z" fill="black"/>
<path d="M93.3492 34.2197C93.3492 34.2197 98.7077 15.8348 101.387 8.73143C106.635 1.36576 111.211 8.73143 111.211 8.73143C111.211 8.73143 119.249 22.1023 120.142 23.7735C121.035 25.4451 121.928 23.7735 121.928 23.7735C121.928 23.7735 127.287 14.1633 130.859 8.73143C134.431 3.29928 140.236 6.64207 140.683 8.73143C141.129 10.8205 148.721 34.2197 148.721 34.2197H139.79L134.431 17.0883L126.394 30.4591C126.394 30.4591 124.607 34.2197 122.375 34.2197C120.142 34.2197 117.462 34.2197 115.23 30.4591C112.997 26.6985 107.639 16.6705 107.639 16.6705L102.28 34.2197H93.3492Z" fill="white"/>
<path d="M152.293 6.22427V34.2197H180.425L186.677 27.1163H161.224V22.9379H179.086L184.444 17.0883H161.224V13.3277H180.425L185.784 6.22427H152.293Z" fill="white"/>
<path d="M189.803 6.2241H198.733V17.0881L212.576 6.2241H225.972L208.557 18.3415C208.557 18.3415 207.218 19.1772 208.557 20.0128C209.897 20.8487 226.865 33.8018 226.865 33.8018H213.469L199.18 22.1021V33.8018H189.803V6.2241Z" fill="white"/>
<path d="M254.63 5.6206H243.019C227.391 5.6206 226.944 16.9024 226.944 16.9024C226.944 16.9024 226.591 17.315 226.944 23.5877C227.391 31.5267 240.34 33.6161 240.34 33.6161C240.34 33.6161 239.894 34.0339 255.969 33.6161C268.026 32.3623 269.812 23.1699 269.812 23.1699V16.9024C269.812 6.87403 254.63 5.6206 254.63 5.6206ZM260.881 23.1699C260.881 23.1699 258.649 26.9305 254.63 26.9305H242.573C242.573 26.9305 235.875 26.5127 235.875 22.3343V18.5737C235.875 18.5737 235.875 13.5596 242.573 13.1418C249.271 12.724 253.737 13.1418 253.737 13.1418C253.737 13.1418 260.881 13.1418 260.881 17.738V23.1699Z" fill="white"/>
</svg>
