<?xml version="1.0" encoding="UTF-8" standalone="no"?>
<svg
   xmlns:dc="http://purl.org/dc/elements/1.1/"
   xmlns:cc="http://creativecommons.org/ns#"
   xmlns:rdf="http://www.w3.org/1999/02/22-rdf-syntax-ns#"
   xmlns:svg="http://www.w3.org/2000/svg"
   xmlns="http://www.w3.org/2000/svg"
   xmlns:sodipodi="http://sodipodi.sourceforge.net/DTD/sodipodi-0.dtd"
   xmlns:inkscape="http://www.inkscape.org/namespaces/inkscape"
   width="138"
   height="20"
   viewBox="0 0 138 20"
   fill="none"
   version="1.1"
   id="svg166"
   sodipodi:docname="Domeko_bialy20px.svg"
   inkscape:version="1.0.1 (3bc2e813f5, 2020-09-07)">
  <metadata
     id="metadata172">
    <rdf:RDF>
      <cc:Work
         rdf:about="">
        <dc:format>image/svg+xml</dc:format>
        <dc:type
           rdf:resource="http://purl.org/dc/dcmitype/StillImage" />
        <dc:title></dc:title>
      </cc:Work>
    </rdf:RDF>
  </metadata>
  <defs
     id="defs170" />
  <sodipodi:namedview
     pagecolor="#ffffff"
     bordercolor="#666666"
     borderopacity="1"
     objecttolerance="10"
     gridtolerance="10"
     guidetolerance="10"
     inkscape:pageopacity="0"
     inkscape:pageshadow="2"
     inkscape:window-width="1366"
     inkscape:window-height="705"
     id="namedview168"
     showgrid="false"
     fit-margin-top="0"
     fit-margin-left="0"
     fit-margin-right="0"
     fit-margin-bottom="0"
     inkscape:zoom="1.6076431"
     inkscape:cx="-29.73862"
     inkscape:cy="23.515943"
     inkscape:window-x="-8"
     inkscape:window-y="-8"
     inkscape:window-maximized="1"
     inkscape:current-layer="svg166" />
  <path
     d="M 0,20 H 138 V 0 H 0 Z"
     fill="#000000"
     id="path150"
     style="stroke-width:0.5" />
  <path
     d="M 2.91342,8.54395 V 16.6919 H 14.077 c 0,0 7.81455,-0.30385 8.0378,-5.6409 0.04295,-1.0292 0,-3.13375 0,-3.13375 0,0 -0.89315,-4.59637 -7.1448,-4.59637 H 6.03915 L 3.35993,6.66365 h 10.49382 c 0,0 3.5724,0.20895 3.5724,3.1339 0,2.71595 -1.7862,3.55155 -3.5724,3.55155 H 7.82535 V 8.54395 Z"
     fill="#ffffff"
     id="path152"
     style="stroke-width:0.5" />
  <path
     d="m 24.3475,8.544 c 0,0 0.22325,-5.640925 8.0378,-5.640925 h 5.805 c 0,0 7.5913,0.62687 7.5913,5.640925 v 3.13385 c 0,0 -0.8932,4.59625 -6.9214,5.22295 -8.0378,0.2089 -7.81455,0 -7.81455,0 0,0 -6.4749,-1.0445 -6.69815,-5.01405 -0.1764,-3.13645 0,-3.34275 0,-3.34275 z"
     fill="#ffffff"
     id="path154"
     style="stroke-width:0.5" />
  <path
     d="m 28.81295,9.3797 c 0,0 0,-2.507 3.34915,-2.71595 3.34895,-0.2089 5.5817,0 5.5817,0 0,0 3.5724,0 3.5724,2.29815 v 2.7159 c 0,0 -1.11645,1.8803 -3.1259,1.8803 h -6.0282 c 0,0 -3.34915,-0.2089 -3.34915,-2.2981 z"
     fill="#000000"
     id="path156"
     style="stroke-width:0.5" />
  <path
     d="m 46.6746,17.10985 c 0,0 2.67925,-9.19245 4.0189,-12.744135 2.624,-3.682835 4.912,0 4.912,0 0,0 4.019,6.685435 4.4655,7.521035 0.4465,0.8358 0.893,0 0.893,0 0,0 2.6795,-4.8051 4.4655,-7.521035 1.786,-2.716075 4.6885,-1.04468 4.912,0 0.223,1.044535 4.019,12.744135 4.019,12.744135 H 69.895 l -2.6795,-8.5657 -4.0185,6.6854 c 0,0 -0.8935,1.8803 -2.0095,1.8803 -1.1165,0 -2.4565,0 -3.5725,-1.8803 -1.1165,-1.8803 -3.7955,-6.8943 -3.7955,-6.8943 l -2.6795,8.7746 z"
     fill="#ffffff"
     id="path158"
     style="stroke-width:0.5" />
  <path
     d="M 76.1465,3.112135 V 17.10985 h 14.066 l 3.126,-3.5517 H 80.612 v -2.0892 h 8.931 l 2.679,-2.9248 h -11.61 v -1.8803 h 9.6005 L 92.892,3.112135 Z"
     fill="#ffffff"
     id="path160"
     style="stroke-width:0.5" />
  <path
     d="m 94.9015,3.11205 h 4.465 v 5.432 l 6.9215,-5.432 h 6.698 l -8.7075,6.0587 c 0,0 -0.6695,0.41785 0,0.83565 0.67,0.41795 9.154,6.8945 9.154,6.8945 h -6.698 L 99.59,11.05105 v 5.84985 h -4.6885 z"
     fill="#ffffff"
     id="path162"
     style="stroke-width:0.5" />
  <path
     d="m 127.315,2.8103 h -5.8055 c -7.814,0 -8.0375,5.6409 -8.0375,5.6409 0,0 -0.1765,0.2063 0,3.34265 0.2235,3.9695 6.698,5.0142 6.698,5.0142 0,0 -0.223,0.2089 7.8145,0 6.0285,-0.6269 6.9215,-5.2231 6.9215,-5.2231 V 8.4512 c 0,-5.014185 -7.591,-5.6409 -7.591,-5.6409 z m 3.1255,8.77465 c 0,0 -1.116,1.8803 -3.1255,1.8803 h -6.0285 c 0,0 -3.349,-0.2089 -3.349,-2.2981 v -1.8803 c 0,0 0,-2.50705 3.349,-2.71595 3.349,-0.2089 5.582,0 5.582,0 0,0 3.572,0 3.572,2.2981 z"
     fill="#ffffff"
     id="path164"
     style="stroke-width:0.5" />
</svg>
