<?xml version="1.0" standalone="no"?>
<!DOCTYPE svg PUBLIC "-//W3C//DTD SVG 20010904//EN"
 "http://www.w3.org/TR/2001/REC-SVG-20010904/DTD/svg10.dtd">
<svg version="1.0" xmlns="http://www.w3.org/2000/svg"
 width="200.000000pt" height="200.000000pt" viewBox="0 0 200.000000 200.000000"
 preserveAspectRatio="xMidYMid meet">
<metadata>
Created by potrace 1.11, written by Peter Selinger 2001-2013
</metadata>
<g transform="translate(0.000000,200.000000) scale(0.100000,-0.100000)"
fill="#000000" stroke="none">
<path d="M188 1558 c-75 -101 -135 -184 -134 -185 1 -1 251 -3 556 -4 443 -2
566 -5 610 -17 188 -48 289 -168 288 -340 0 -76 -28 -199 -51 -229 -50 -65
-108 -112 -162 -133 -58 -23 -70 -24 -422 -26 l-363 -2 0 268 0 268 -255 0
-255 -1 0 -454 0 -454 633 4 c347 2 646 6 662 10 17 5 66 16 111 27 319 75
530 254 579 492 7 33 13 142 13 253 1 168 -2 203 -19 252 -54 158 -170 289
-324 366 -161 80 -209 86 -815 86 l-515 1 -137 -182z"/>
</g>
</svg>
